HIERARCHY
ROOT CG
{
	OFFSET -0.000000 -0.000000 27.772259
	CHANNELS 6 Xposition Yposition Zposition Xrotation Yrotation Zrotation
	JOINT Pelvis
	{
		OFFSET 0.000000 0.000000 0.000000
		CHANNELS 3 Xrotation Yrotation Zrotation
		JOINT Spine
		{
			OFFSET 0.000021 -10.490843 -0.495483
			CHANNELS 3 Xrotation Yrotation Zrotation
			JOINT Spine1
			{
				OFFSET 0.000071 -22.678980 0.018061
				CHANNELS 3 Xrotation Yrotation Zrotation
				JOINT Spine2
				{
					OFFSET 0.000071 -22.678967 0.018061
					CHANNELS 3 Xrotation Yrotation Zrotation
					JOINT Spine3
					{
						OFFSET 0.000071 -22.678982 0.018059
						CHANNELS 3 Xrotation Yrotation Zrotation
						JOINT Neck
						{
							OFFSET 0.000069 -22.678986 -1.289251
							CHANNELS 3 Xrotation Yrotation Zrotation
							JOINT Neck1
							{
								OFFSET 0.000051 -16.255905 0.012947
								CHANNELS 3 Xrotation Yrotation Zrotation
								JOINT Head
								{
									OFFSET 0.000033 -10.784607 -0.287502
									CHANNELS 3 Xrotation Yrotation Zrotation
									JOINT Jaw01
									{
										OFFSET 0.000003 7.782959 5.073944
										CHANNELS 3 Xrotation Yrotation Zrotation
										JOINT Jaw02
										{
											OFFSET 0.000129 -34.927139 -18.883980
											CHANNELS 3 Xrotation Yrotation Zrotation
											End Site
											{
												OFFSET -0.000200 8.372803 -38.812450
											}
										}
									}
									JOINT Nose
									{
										OFFSET 0.000090 -25.700912 7.222265
										CHANNELS 3 Xrotation Yrotation Zrotation
										End Site
										{
											OFFSET -0.000092 0.641281 -21.715439
										}
									}
									JOINT L_EyeSocket
									{
										OFFSET 7.352397 -19.832687 14.164183
										CHANNELS 3 Xrotation Yrotation Zrotation
										JOINT L_Eye
										{
											OFFSET -0.000868 -0.001053 0.016003
											CHANNELS 3 Xrotation Yrotation Zrotation
											End Site
											{
												OFFSET -0.001505 -0.001846 0.027969
											}
										}
										JOINT L_Eyelid_Top
										{
											OFFSET -0.001004 -0.002625 0.032516
											CHANNELS 3 Xrotation Yrotation Zrotation
											End Site
											{
												OFFSET -0.013218 0.005753 0.024086
											}
										}
										JOINT L_Eyelid_Bottom
										{
											OFFSET -0.001194 -0.002777 0.035381
											CHANNELS 3 Xrotation Yrotation Zrotation
											End Site
											{
												OFFSET -0.010032 0.008636 -0.024754
											}
										}
									}
									JOINT R_EyeSocket
									{
										OFFSET -7.352180 -19.832779 14.164206
										CHANNELS 3 Xrotation Yrotation Zrotation
										JOINT R_Eye
										{
											OFFSET 0.000875 -0.001068 0.015991
											CHANNELS 3 Xrotation Yrotation Zrotation
											End Site
											{
												OFFSET 0.001505 -0.001846 0.027962
											}
										}
										JOINT R_Eyelid_Top
										{
											OFFSET 0.001021 -0.002625 0.032516
											CHANNELS 3 Xrotation Yrotation Zrotation
											End Site
											{
												OFFSET 0.013214 0.005753 0.024078
											}
										}
										JOINT R_Eyelid_Bottom
										{
											OFFSET 0.001170 -0.002762 0.035366
											CHANNELS 3 Xrotation Yrotation Zrotation
											End Site
											{
												OFFSET 0.010029 0.008636 -0.024746
											}
										}
									}
								}
								JOINT Neck_Fat
								{
									OFFSET 0.000078 -9.595100 -17.491512
									CHANNELS 3 Xrotation Yrotation Zrotation
									End Site
									{
										OFFSET -0.000091 15.369423 -0.000007
									}
								}
							}
						}
						JOINT L_Clavicle
						{
							OFFSET 4.567149 -11.666077 -3.750029
							CHANNELS 3 Xrotation Yrotation Zrotation
							JOINT L_UpperArm
							{
								OFFSET 20.725664 0.000023 -0.000032
								CHANNELS 3 Xrotation Yrotation Zrotation
								JOINT L_Forearm
								{
									OFFSET 5.265114 -0.585732 -20.155697
									CHANNELS 3 Xrotation Yrotation Zrotation
									JOINT L_Hand
									{
										OFFSET 2.653055 -10.877701 -16.383667
										CHANNELS 3 Xrotation Yrotation Zrotation
										JOINT L_Finger0
										{
											OFFSET -4.206129 -4.328926 -5.034346
											CHANNELS 3 Xrotation Yrotation Zrotation
											JOINT L_Finger01
											{
												OFFSET 0.084278 -1.788536 -4.181065
												CHANNELS 3 Xrotation Yrotation Zrotation
												End Site
												{
													OFFSET 3.261873 3.094681 -0.685818
												}
											}
										}
										JOINT L_Finger1
										{
											OFFSET -1.039085 -6.775749 -3.499998
											CHANNELS 3 Xrotation Yrotation Zrotation
											JOINT L_Finger11
											{
												OFFSET 1.320347 -3.040665 -6.425793
												CHANNELS 3 Xrotation Yrotation Zrotation
												End Site
												{
													OFFSET -1.244606 6.832069 -2.013330
												}
											}
										}
										JOINT L_Finger2
										{
											OFFSET 2.531319 -5.656479 -3.286415
											CHANNELS 3 Xrotation Yrotation Zrotation
											JOINT L_Finger21
											{
												OFFSET 1.991673 -2.402008 -5.957748
												CHANNELS 3 Xrotation Yrotation Zrotation
												End Site
												{
													OFFSET -2.793091 5.800865 -1.944178
												}
											}
										}
										JOINT L_Finger3
										{
											OFFSET 5.474087 -3.302322 -2.655975
											CHANNELS 3 Xrotation Yrotation Zrotation
											JOINT L_Finger31
											{
												OFFSET 2.026951 -1.267525 -5.961166
												CHANNELS 3 Xrotation Yrotation Zrotation
												End Site
												{
													OFFSET -4.375191 4.343643 -1.800320
												}
											}
										}
										JOINT L_Finger4
										{
											OFFSET 4.825741 1.085915 -2.321970
											CHANNELS 3 Xrotation Yrotation Zrotation
											JOINT L_Finger41
											{
												OFFSET 3.358269 -1.829636 -3.744434
												CHANNELS 3 Xrotation Yrotation Zrotation
												End Site
												{
													OFFSET -3.843307 2.955185 -2.267633
												}
											}
										}
									}
								}
							}
						}
						JOINT R_Clavicle
						{
							OFFSET -4.567070 -11.666107 -3.750036
							CHANNELS 3 Xrotation Yrotation Zrotation
							JOINT R_UpperArm
							{
								OFFSET -20.725672 -0.000107 0.000038
								CHANNELS 3 Xrotation Yrotation Zrotation
								JOINT R_Forearm
								{
									OFFSET -5.265284 -0.585785 -20.155655
									CHANNELS 3 Xrotation Yrotation Zrotation
									JOINT R_Hand
									{
										OFFSET -2.653109 -10.877747 -16.383663
										CHANNELS 3 Xrotation Yrotation Zrotation
										JOINT R_Finger0
										{
											OFFSET 4.206133 -4.328873 -5.034388
											CHANNELS 3 Xrotation Yrotation Zrotation
											JOINT R_Finger01
											{
												OFFSET -0.084318 -1.788544 -4.181051
												CHANNELS 3 Xrotation Yrotation Zrotation
												End Site
												{
													OFFSET -3.261902 3.094658 -0.685791
												}
											}
										}
										JOINT R_Finger1
										{
											OFFSET 1.039127 -6.775703 -3.499994
											CHANNELS 3 Xrotation Yrotation Zrotation
											JOINT R_Finger11
											{
												OFFSET -1.320362 -3.040680 -6.425779
												CHANNELS 3 Xrotation Yrotation Zrotation
												End Site
												{
													OFFSET 1.244530 6.832085 -2.013342
												}
											}
										}
										JOINT R_Finger2
										{
											OFFSET -2.531284 -5.656471 -3.286409
											CHANNELS 3 Xrotation Yrotation Zrotation
											JOINT R_Finger21
											{
												OFFSET -1.991699 -2.402023 -5.957708
												CHANNELS 3 Xrotation Yrotation Zrotation
												End Site
												{
													OFFSET 2.793015 5.800865 -1.944197
												}
											}
										}
										JOINT R_Finger3
										{
											OFFSET -5.474079 -3.302345 -2.655947
											CHANNELS 3 Xrotation Yrotation Zrotation
											JOINT R_Finger31
											{
												OFFSET -2.026985 -1.267540 -5.961157
												CHANNELS 3 Xrotation Yrotation Zrotation
												End Site
												{
													OFFSET 4.375137 4.343689 -1.800358
												}
											}
										}
										JOINT R_Finger4
										{
											OFFSET -4.825760 1.085907 -2.321926
											CHANNELS 3 Xrotation Yrotation Zrotation
											JOINT R_Finger41
											{
												OFFSET -3.358299 -1.829666 -3.744390
												CHANNELS 3 Xrotation Yrotation Zrotation
												End Site
												{
													OFFSET 3.843262 2.955223 -2.267666
												}
											}
										}
									}
								}
							}
						}
					}
				}
			}
		}
		JOINT Tail01
		{
			OFFSET -0.000049 10.922326 -0.017508
			CHANNELS 3 Xrotation Yrotation Zrotation
			JOINT Tail02
			{
				OFFSET -0.000100 21.986111 0.000013
				CHANNELS 3 Xrotation Yrotation Zrotation
				JOINT Tail03
				{
					OFFSET -0.000100 21.986118 0.000002
					CHANNELS 3 Xrotation Yrotation Zrotation
					JOINT Tail04
					{
						OFFSET -0.000100 21.986122 0.000004
						CHANNELS 3 Xrotation Yrotation Zrotation
						JOINT Tail05
						{
							OFFSET -0.000100 21.986099 0.000010
							CHANNELS 3 Xrotation Yrotation Zrotation
							JOINT Tail06
							{
								OFFSET -0.000100 21.986099 0.000006
								CHANNELS 3 Xrotation Yrotation Zrotation
								JOINT Tail07
								{
									OFFSET -0.000100 21.986099 0.000000
									CHANNELS 3 Xrotation Yrotation Zrotation
									JOINT Tail08
									{
										OFFSET -0.000100 21.984848 0.000050
										CHANNELS 3 Xrotation Yrotation Zrotation
										JOINT Tail09
										{
											OFFSET -0.000103 21.926025 -1.606211
											CHANNELS 3 Xrotation Yrotation Zrotation
											JOINT Tail10
											{
												OFFSET -0.000105 21.750092 -3.203882
												CHANNELS 3 Xrotation Yrotation Zrotation
												End Site
												{
													OFFSET -0.000053 4.767395 21.461668
												}
											}
										}
									}
								}
							}
						}
					}
				}
			}
		}
		JOINT L_Thigh
		{
			OFFSET 24.788780 0.000110 -0.000034
			CHANNELS 3 Xrotation Yrotation Zrotation
			JOINT L_Calf
			{
				OFFSET 4.720823 4.161343 -21.049969
				CHANNELS 3 Xrotation Yrotation Zrotation
				JOINT L_Foot
				{
					OFFSET 2.154083 21.114443 -11.949743
					CHANNELS 3 Xrotation Yrotation Zrotation
					JOINT L_Toe0
					{
						OFFSET 4.557531 9.251856 -8.735286
						CHANNELS 3 Xrotation Yrotation Zrotation
						End Site
						{
							OFFSET 4.555584 -12.646029 1.018752
						}
					}
					JOINT L_Toe1
					{
						OFFSET 2.346270 5.845610 -11.687160
						CHANNELS 3 Xrotation Yrotation Zrotation
						End Site
						{
							OFFSET 5.347996 -12.298262 1.365644
						}
					}
					JOINT L_Toe2
					{
						OFFSET -0.356033 3.902456 -12.541145
						CHANNELS 3 Xrotation Yrotation Zrotation
						End Site
						{
							OFFSET 3.916277 -12.806116 1.542549
						}
					}
					JOINT L_Toe3
					{
						OFFSET -4.603458 3.183916 -12.435249
						CHANNELS 3 Xrotation Yrotation Zrotation
						End Site
						{
							OFFSET 3.810904 -12.587413 2.957583
						}
					}
					JOINT L_Toe4
					{
						OFFSET -7.144381 6.231468 -10.072764
						CHANNELS 3 Xrotation Yrotation Zrotation
						End Site
						{
							OFFSET 3.810902 -12.587412 2.957585
						}
					}
				}
			}
		}
		JOINT R_Thigh
		{
			OFFSET -24.788780 -0.000112 0.000034
			CHANNELS 3 Xrotation Yrotation Zrotation
			JOINT R_Calf
			{
				OFFSET -4.720936 4.161307 -21.049952
				CHANNELS 3 Xrotation Yrotation Zrotation
				JOINT R_Foot
				{
					OFFSET -2.154314 21.114407 -11.949730
					CHANNELS 3 Xrotation Yrotation Zrotation
					JOINT R_Toe0
					{
						OFFSET -4.557631 9.251808 -8.735270
						CHANNELS 3 Xrotation Yrotation Zrotation
						End Site
						{
							OFFSET -4.555466 -12.646067 1.018756
						}
					}
					JOINT R_Toe1
					{
						OFFSET -2.346346 5.845581 -11.687157
						CHANNELS 3 Xrotation Yrotation Zrotation
						End Site
						{
							OFFSET -5.347878 -12.298304 1.365654
						}
					}
					JOINT R_Toe2
					{
						OFFSET 0.355967 3.902464 -12.541145
						CHANNELS 3 Xrotation Yrotation Zrotation
						End Site
						{
							OFFSET -3.916157 -12.806145 1.542559
						}
					}
					JOINT R_Toe3
					{
						OFFSET 4.603399 3.183960 -12.435266
						CHANNELS 3 Xrotation Yrotation Zrotation
						End Site
						{
							OFFSET -3.810780 -12.587443 2.957591
						}
					}
					JOINT R_Toe4
					{
						OFFSET 7.144300 6.231529 -10.072779
						CHANNELS 3 Xrotation Yrotation Zrotation
						End Site
						{
							OFFSET -3.810781 -12.587446 2.957584
						}
					}
				}
			}
		}
	}
}
MOTION
Frames: 4
Frame Time: 0.033333
0.004823 0.000000 47.991329 0.000000 -0.000000 -0.000079 -13.072691 3.623820 -0.218261 14.092449 -2.429776 4.989269 0.782490 -0.811217 -2.333838 -0.390449 -0.610436 -2.309793 -5.811135 -0.651805 -2.341127 4.027350 -0.078356 0.252504 -0.214891 0.021339 0.242315 3.484434 1.326253 2.500516 -9.110964 0.340807 -0.410400 -0.000003 0.000000 -0.000000 0.000021 0.000000 -0.000000 0.000001 0.000000 -0.000001 0.000093 -0.000058 0.000004 0.000000 -0.000003 -0.000007 -0.000003 -0.000004 0.000005 0.000001 0.000000 -0.000005 0.000092 0.000058 -0.000006 -0.000001 -0.000001 0.000005 0.000000 -0.000003 0.000010 -0.120594 -0.000000 0.000000 0.001321 -13.601237 0.708094 51.600194 -18.894644 -12.433147 -42.085286 10.065257 -8.008849 -28.468094 -0.940884 12.540043 23.168705 40.495795 23.634739 73.197525 -28.850490 49.373617 54.439900 13.061308 -13.769091 57.038910 12.907526 -0.532016 49.052633 21.220202 -10.721047 39.706420 20.342021 -2.365708 27.828358 15.834288 -9.453387 37.792017 34.843660 -8.051465 18.803885 17.629468 -2.380836 68.506060 58.651893 -31.639151 0.000098 -4.019852 -0.519585 26.903284 1.154507 27.257192 -12.597961 -2.332431 3.120411 -60.574899 16.597939 15.733383 4.814059 -45.237808 -32.497060 0.110231 0.095494 -0.044123 31.239984 -13.715053 10.714956 -21.104660 3.969035 2.955304 30.256591 -6.344327 6.448393 -32.341994 14.391757 8.163794 20.872382 11.244914 8.185612 -18.726844 18.088883 5.096027 18.638731 29.684299 0.395242 0.555250 -0.804608 -0.101800 -1.634554 0.063364 0.346867 -1.707891 0.015042 6.334474 -1.946898 0.173450 4.488035 -0.072618 0.591433 4.067384 4.563180 0.436663 5.642346 6.437696 0.450787 3.730284 7.084070 -0.544716 -2.674240 4.617342 -1.919395 -12.669048 0.765611 -3.425492 -19.193127 4.280794 -3.227685 -20.773336 -37.424522 -5.563347 7.392041 26.095644 2.056593 5.645016 -53.463405 1.575497 -27.240389 6.066682 -26.109607 5.606192 11.001759 -7.505034 3.932607 16.307355 9.973692 1.750467 18.242042 15.320270 -15.214542 -5.992220 24.366416 -11.008938 -43.437288 12.315358 19.388001 42.501091 -4.577025 -8.523077 -47.806321 -31.842455 6.218713 45.858279 -26.415144 -5.832999 56.430705 -32.128681 -2.702048 67.673842 -38.171120 -1.613167 74.130932 -37.984605 15.473961 46.840833 -38.432539 2.984151 
-0.224247 -0.000001 47.285927 0.000000 -0.000000 -0.000079 -13.016598 3.902808 -1.522174 13.497652 -2.942253 4.883698 0.801742 -0.518192 -1.461824 -0.294696 -0.341267 -1.453476 -5.712599 -0.376765 -1.478061 4.615856 -0.105366 -0.116888 0.057550 -0.014730 -0.128142 3.632348 1.052554 2.064609 -9.003942 0.352565 -0.454613 -0.000004 0.000000 -0.000000 0.000020 -0.000000 0.000000 -0.000000 0.000000 -0.000003 0.000093 -0.000057 0.000006 0.000003 -0.000005 -0.000007 -0.000003 -0.000002 0.000003 -0.000001 0.000000 -0.000008 0.000092 0.000058 -0.000008 0.000000 -0.000003 0.000001 -0.000001 -0.000003 0.000006 -0.133196 -0.000000 0.000000 0.000999 -12.333760 4.885387 58.676700 -21.837182 -12.424479 -42.891819 10.306969 -8.084110 -33.322099 1.398576 11.301017 17.974831 38.537806 23.718341 65.067811 -29.161704 43.213524 49.117864 10.616370 -13.571662 51.579666 11.792712 0.078354 45.309221 19.154022 -9.272266 32.675669 17.095135 -0.917632 24.994871 13.837474 -7.492898 33.441457 31.846365 -6.033346 18.840385 17.462448 -1.163708 51.092950 53.169997 -18.324491 0.000178 -5.756004 2.626187 26.622549 0.826218 24.953954 -13.524629 -2.531153 3.329747 -58.806576 18.877629 14.380419 5.994052 -45.675521 -31.665245 0.075186 0.051682 -0.060790 31.835047 -13.949887 11.138859 -21.195072 3.994680 2.948242 30.767373 -6.549266 6.437140 -32.434195 14.424979 8.201533 21.259054 11.349183 7.711465 -18.735450 18.096103 5.099564 19.102857 30.058437 -0.294872 0.571634 -0.828387 -0.104695 -1.620298 0.063522 0.374250 -1.684248 0.006324 6.517597 -1.957756 0.156187 4.864638 -0.782150 0.544731 4.380254 3.822874 0.298295 6.291756 6.232978 0.354002 5.073009 8.057369 -0.536291 -0.470660 6.106978 -1.464856 -10.259189 2.319328 -3.169965 -17.845648 5.398832 -3.686121 -21.265157 -41.954966 -8.289287 8.168640 28.802826 2.413372 6.166343 -51.349229 2.740059 -27.972188 6.060389 -26.112718 5.605829 10.994420 -7.508533 3.932588 16.299464 9.970049 1.750810 18.233858 15.316581 -15.214047 -5.999931 24.363018 -11.009023 -39.868504 11.502167 19.734980 46.097667 -5.234505 -9.052617 -48.729916 -33.963966 9.724186 41.077605 -25.707772 -6.616940 50.379762 -31.074820 -3.840942 61.308843 -37.215341 -2.879027 67.315845 -37.159450 13.811892 38.822327 -36.646181 0.992145 
-0.473340 -0.000002 46.379070 0.000000 -0.000000 -0.000079 -12.945017 4.165055 -2.953102 12.717343 -3.466464 4.843898 0.812907 -0.219757 -0.563674 -0.017793 -0.079261 -0.574898 -5.432324 -0.108917 -0.596137 5.124006 -0.142583 -0.484594 0.221867 -0.058363 -0.496699 3.783124 0.782139 1.614191 -8.949838 0.371542 -0.513721 -0.000003 0.000000 -0.000000 0.000020 -0.000000 0.000000 0.000001 0.000000 -0.000001 0.000094 -0.000058 0.000006 0.000002 -0.000003 -0.000006 -0.000002 -0.000002 0.000003 -0.000000 0.000001 -0.000006 0.000092 0.000058 -0.000006 -0.000001 -0.000003 0.000003 -0.000001 -0.000001 0.000007 -0.143188 -0.000001 -0.000000 0.000139 -10.592149 10.276956 65.218225 -25.866693 -12.013448 -41.247523 9.815225 -7.927067 -41.724881 6.940511 9.665503 12.429154 34.698952 22.104256 51.655099 -27.992868 33.086693 41.896124 7.587671 -12.655996 42.039326 9.709350 0.877073 40.417129 15.950805 -7.498650 21.398301 11.407671 0.517502 21.490038 10.926738 -5.373285 26.109916 26.072159 -3.162856 18.756072 16.580419 0.002643 31.826609 41.270096 -5.876268 0.000123 -6.689314 4.346650 24.515900 -0.024776 24.053119 -12.676578 -2.349151 3.138290 -57.014294 20.317511 12.730548 7.998292 -46.379556 -30.238166 0.009718 -0.019952 -0.073876 32.831497 -14.332322 11.851509 -21.345159 4.032604 2.949410 31.623404 -6.884057 6.438104 -32.589534 14.477353 8.260102 21.905387 11.516585 6.919713 -18.741887 18.101501 5.102218 19.892554 30.674714 -1.455766 0.592215 -0.858277 -0.108321 -1.627492 0.065806 0.404960 -1.667704 0.002293 6.629581 -1.868886 0.139377 5.442168 -1.315274 0.483168 4.728323 3.151978 0.094656 6.618711 5.799426 0.181210 5.935400 8.647446 -0.550437 1.479653 7.264565 -0.752287 -7.515936 4.081789 -2.621792 -15.602307 6.874412 -3.905393 -20.706600 -46.625941 -11.258729 8.645391 31.696374 2.821855 6.704926 -49.224309 3.829274 -28.797563 6.039788 -26.121278 5.605246 10.970884 -7.518122 3.932916 16.274321 9.960117 1.752120 18.207818 15.306517 -15.212320 -6.028158 24.352242 -11.010665 -36.457812 10.872775 18.783386 50.490643 -6.080991 -9.642734 -47.968845 -35.832549 16.392355 29.705729 -23.781325 -8.203664 36.154619 -28.163146 -5.973481 46.397000 -34.506334 -5.291091 51.335425 -34.584267 10.447374 20.535843 -31.592237 -2.297763 
-0.740240 -0.000003 45.404079 0.000000 -0.000000 -0.000079 -12.862271 4.403575 -4.469891 11.876297 -3.994758 4.840480 0.815436 0.087390 0.357354 0.378929 0.186686 0.324954 -5.032290 0.163127 0.305572 5.517820 -0.183774 -0.849910 0.271114 -0.104194 -0.862744 3.924435 0.473694 1.145644 -8.934658 0.392701 -0.574305 -0.000003 0.000000 -0.000000 0.000022 -0.000000 0.000000 0.000000 0.000000 0.000002 0.000095 -0.000058 0.000003 0.000000 -0.000001 -0.000007 -0.000001 -0.000002 0.000003 0.000001 0.000000 -0.000005 0.000092 0.000058 -0.000008 -0.000000 0.000001 0.000001 -0.000003 -0.000002 0.000004 -0.149547 -0.000000 0.000000 -0.001164 -8.774986 15.821923 69.428033 -29.942887 -11.919240 -37.042394 8.578505 -7.461651 -49.557267 13.530902 7.864547 6.561288 30.758162 20.110889 37.251370 -24.266901 22.515982 32.980760 4.333799 -11.712101 30.914679 7.132205 1.350853 33.902556 11.882717 -5.787203 8.946156 4.758383 0.738322 16.994098 6.779051 -3.850107 18.164188 18.842817 -0.938947 17.614377 14.078834 1.206452 17.895756 26.325337 -0.154018 0.000093 -7.410401 6.041788 21.835239 -1.120440 22.950346 -11.248315 -2.049329 2.810139 -55.390512 21.327097 11.132454 8.408782 -46.513978 -29.943720 -0.005449 -0.029657 -0.070993 33.032301 -14.406612 11.995398 -21.374835 4.039105 2.954774 31.796972 -6.947796 6.446775 -32.622073 14.484710 8.269723 22.035377 11.548259 6.760553 -18.739739 18.099701 5.101333 20.050259 30.797098 -1.690023 0.593156 -0.859646 -0.108478 -1.634712 0.070407 0.436492 -1.649235 -0.000947 6.860426 -1.795790 0.125889 6.068416 -1.661517 0.422946 5.182596 2.630214 -0.069636 7.003987 5.128920 -0.023376 6.645299 8.618034 -0.616754 3.035269 7.792049 -0.099246 -5.140331 5.733902 -2.014776 -13.154646 9.018265 -3.924636 -19.463095 -51.194184 -14.353111 8.914123 34.256291 3.205832 7.164254 -46.884543 4.801690 -29.691952 6.063666 -26.117163 5.603991 10.990527 -7.515582 3.931584 16.301169 9.964573 1.750132 18.227927 15.308841 -15.214002 -6.001717 24.355720 -11.017942 -32.394884 10.169906 16.550527 53.515546 -6.689058 -10.010995 -46.349288 -35.811959 23.454989 18.556845 -21.608529 -9.328631 22.436634 -24.890225 -7.198589 32.120242 -31.393920 -6.713195 36.079634 -31.369928 8.163429 3.512347 -25.951403 -3.510877 
